<svg xmlns="http://www.w3.org/2000/svg" xmlns:xlink="http://www.w3.org/1999/xlink" viewBox="0 0 33.61 142.42"><defs><style>.cls-1{fill:url(#New_Gradient_Swatch);}.cls-2{fill:url(#New_Gradient_Swatch_copy);}.cls-3{fill:url(#linear-gradient);}.cls-4{fill:url(#linear-gradient-2);}.cls-5{fill:url(#linear-gradient-3);}.cls-6{fill:#fff;}</style><linearGradient id="New_Gradient_Swatch" x1="-1186.13" y1="-1860.13" x2="-1206.41" y2="-1829.53" gradientTransform="translate(1840.98 -1187.79) rotate(-90)" gradientUnits="userSpaceOnUse"><stop offset="0" stop-color="#5fc2aa"/><stop offset="1" stop-color="#6cc8c6"/></linearGradient><linearGradient id="New_Gradient_Swatch_copy" x1="-1221.1" y1="-1827.64" x2="-1190.53" y2="-1813.14" gradientTransform="translate(1840.98 -1187.79) rotate(-90)" gradientUnits="userSpaceOnUse"><stop offset="0" stop-color="#3d66b0"/><stop offset="1" stop-color="#4b84c4"/></linearGradient><linearGradient id="linear-gradient" x1="-1185.83" y1="-1859.93" x2="-1206.11" y2="-1829.33" xlink:href="#New_Gradient_Swatch"/><linearGradient id="linear-gradient-2" x1="-1216.23" y1="-1835.93" x2="-1186.51" y2="-1823.21" xlink:href="#New_Gradient_Swatch_copy"/><linearGradient id="linear-gradient-3" x1="-1204.73" y1="-1821.99" x2="-1198.85" y2="-1825.07" gradientTransform="translate(1840.98 -1187.79) rotate(-90)" gradientUnits="userSpaceOnUse"><stop offset="0" stop-color="#fff"/><stop offset="1" stop-color="#fafafa"/></linearGradient></defs><g id="Layer_2" data-name="Layer 2"><g id="Layer_1-2" data-name="Layer 1"><path class="cls-1" d="M22.34,27.83c-.35,0-.7,0-1,0s-.67-.07-1-.12-.63-.11-.93-.18a10.18,10.18,0,0,1-1.29-.38c-.28-.09-.54-.2-.8-.31a11.51,11.51,0,0,1-1.11-.56,11.28,11.28,0,0,1-1.32-.89l-.3-.24a12.16,12.16,0,0,1-1.1-1.05l-.25-.27A14.14,14.14,0,0,1,11.93,22a14.82,14.82,0,0,1-1-1.81c-.1-.21-.19-.41-.27-.61s-.17-.39-.24-.59a21.74,21.74,0,0,1-1.07-3.74,8.08,8.08,0,0,1-.23-1.92v0s0-.07,0-.1V10.59A9.09,9.09,0,0,0,6.44,4.15,9.05,9.05,0,0,0,0,1.48V13.39A16.82,16.82,0,0,0,17.07,30.2a16.43,16.43,0,0,0,8.73-2.65A18.65,18.65,0,0,1,22.34,27.83Z"/><path class="cls-2" d="M24.9,13.72A7.9,7.9,0,0,1,9.35,15.28,21.74,21.74,0,0,0,10.42,19c.07.2.15.39.24.59s.17.4.27.61a14.82,14.82,0,0,0,1,1.81,14.14,14.14,0,0,0,1.3,1.75l.25.27a12.16,12.16,0,0,0,1.1,1.05l.3.24a11.28,11.28,0,0,0,1.32.89,11.51,11.51,0,0,0,1.11.56c.26.11.52.22.8.31a10.18,10.18,0,0,0,1.29.38q.45.11.93.18c.31.05.64.09,1,.12s.68,0,1,0a18.65,18.65,0,0,0,3.46-.28,17.17,17.17,0,0,0,7.81-14.41v-.71A14.38,14.38,0,0,0,28,1a4.91,4.91,0,0,0-7.86,3.93h0a1.9,1.9,0,0,0,.91,1.63A7.87,7.87,0,0,1,24.9,13.72Z"/><path class="cls-3" d="M9.35,15.28h0A21.74,21.74,0,0,0,10.42,19,21.74,21.74,0,0,1,9.35,15.28Z"/><path class="cls-4" d="M9.35,15.28h0A21.74,21.74,0,0,0,10.42,19,21.74,21.74,0,0,1,9.35,15.28Z"/><circle class="cls-5" cx="17.04" cy="13.22" r="4.14"/><path class="cls-6" d="M8.42,136a6.25,6.25,0,0,1,1.3-4,5.24,5.24,0,0,1,3.5-2l.24,2.71a3.36,3.36,0,0,0-2,1.14,3.74,3.74,0,0,0,.43,4.88,4.5,4.5,0,0,0,3,1,4.29,4.29,0,0,0,3.08-1,3.52,3.52,0,0,0,1.1-2.66,3.47,3.47,0,0,0-.69-2.21,3.16,3.16,0,0,0-2-1.12l.24-2.73a5.32,5.32,0,0,1,3.47,2,6.28,6.28,0,0,1,1.28,4,6.35,6.35,0,0,1-1.76,4.63,6.28,6.28,0,0,1-4.73,1.79,6.31,6.31,0,0,1-4.73-1.79A6.36,6.36,0,0,1,8.42,136Z"/><path class="cls-6" d="M16.86,119.22a4.34,4.34,0,0,1,3.28,1.32,4.57,4.57,0,0,1,1.25,3.31,4.66,4.66,0,0,1-1.25,3.33,4.36,4.36,0,0,1-3.28,1.3,4.35,4.35,0,0,1-3.29-1.3,4.66,4.66,0,0,1-1.24-3.33,4.56,4.56,0,0,1,1.24-3.31A4.29,4.29,0,0,1,16.86,119.22Zm-1.77,3.08a2.15,2.15,0,0,0,0,3.1,2.54,2.54,0,0,0,1.77.59,2.5,2.5,0,0,0,1.76-.59,2.2,2.2,0,0,0,0-3.1,2.5,2.5,0,0,0-1.76-.59A2.54,2.54,0,0,0,15.09,122.3Z"/><path class="cls-6" d="M12.41,112.51h2.38a2.49,2.49,0,0,0,.54,1.68,1.87,1.87,0,0,0,1.46.62H21.2v2.46H12.5V114.9h1A2.6,2.6,0,0,1,12.41,112.51Z"/><path class="cls-6" d="M12.33,106a3.94,3.94,0,0,1,1.24-3,4.54,4.54,0,0,1,3.29-1.18A4.52,4.52,0,0,1,20.14,103a3.94,3.94,0,0,1,1.25,3,3.09,3.09,0,0,1-.93,2.44h5v2.46h-13v-2.33h.91A3,3,0,0,1,12.33,106Zm2.1.39a1.94,1.94,0,0,0,.61,1.49,2.29,2.29,0,0,0,1.62.56h.4a2.33,2.33,0,0,0,1.62-.56,2,2,0,0,0,.6-1.49,1.93,1.93,0,0,0-.65-1.54,2.58,2.58,0,0,0-1.77-.57,2.61,2.61,0,0,0-1.78.57A2,2,0,0,0,14.43,106.4Z"/><path class="cls-6" d="M12.33,95a3.94,3.94,0,0,1,1.24-3,4.54,4.54,0,0,1,3.29-1.18,4.52,4.52,0,0,1,3.28,1.18,3.94,3.94,0,0,1,1.25,3,3.09,3.09,0,0,1-.93,2.44h5v2.46h-13V97.52h.91A3,3,0,0,1,12.33,95Zm2.1.39A1.94,1.94,0,0,0,15,96.83a2.29,2.29,0,0,0,1.62.56h.4a2.33,2.33,0,0,0,1.62-.56,2,2,0,0,0,.6-1.49,2,2,0,0,0-.65-1.54,2.58,2.58,0,0,0-1.77-.57,2.61,2.61,0,0,0-1.78.57A2,2,0,0,0,14.43,95.34Z"/><path class="cls-6" d="M12.33,85.07a3,3,0,0,1,1.08-2.6H12.5v-2.3h8.7v2.3h-.89a2.83,2.83,0,0,1,.78,1.07,3.8,3.8,0,0,1,.3,1.53,4,4,0,0,1-1.25,3,4.59,4.59,0,0,1-3.28,1.16,4.62,4.62,0,0,1-3.29-1.16A4,4,0,0,1,12.33,85.07Zm2.1-.41a1.94,1.94,0,0,0,.65,1.53,2.56,2.56,0,0,0,1.78.58,2.49,2.49,0,0,0,1.76-.58,1.94,1.94,0,0,0,.64-1.53,2,2,0,0,0-.58-1.49A2.31,2.31,0,0,0,17,82.61h-.38a2.29,2.29,0,0,0-1.62.56A1.94,1.94,0,0,0,14.43,84.66Z"/><path class="cls-6" d="M12.41,73h2.38a2.5,2.5,0,0,0,.54,1.69,1.87,1.87,0,0,0,1.46.62H21.2v2.46H12.5V75.35h1A2.57,2.57,0,0,1,12.41,73Z"/><path class="cls-6" d="M8.12,68.91h7.47L12.5,66.1v-3l3.72,3.28,5-3.52v3l-3.15,2.27.84.78H21.2v2.45H8.12Z"/><path class="cls-6" d="M8.61,55.1H21.2v2.61H8.61Z"/><path class="cls-6" d="M20.66,39.23l1.85,1.82-2,2a7,7,0,0,1,.85,3.44,6.53,6.53,0,0,1-1.77,4.71A6.3,6.3,0,0,1,14.9,53a6.23,6.23,0,0,1-4.69-1.84,6.47,6.47,0,0,1-1.79-4.71,6.46,6.46,0,0,1,1.79-4.7,6.22,6.22,0,0,1,4.69-1.83,6.53,6.53,0,0,1,3.91,1.16Zm-1.58,7.24a4.22,4.22,0,0,0-.32-1.65l-1.89,1.9L15.06,44.9,16.94,43a4.86,4.86,0,0,0-2-.4,4.17,4.17,0,0,0-3,1.07,3.68,3.68,0,0,0-1.13,2.8,3.74,3.74,0,0,0,1.13,2.83,4.17,4.17,0,0,0,3,1.07,4.26,4.26,0,0,0,3-1.07A3.74,3.74,0,0,0,19.08,46.47Z"/></g></g></svg>