<svg width="31" height="34" viewBox="0 0 31 34" fill="none" xmlns="http://www.w3.org/2000/svg">
    <path
        d="M3.02834 22.6733C3.02834 22.3233 3.02834 21.9733 3.02834 21.6733C3.02834 21.3733 3.09835 21.0133 3.14835 20.6733C3.19835 20.3333 3.25835 20.0433 3.32835 19.7433C3.43108 19.3066 3.55794 18.876 3.70834 18.4533C3.79834 18.1733 3.90835 17.9133 4.01835 17.6533C4.18488 17.2735 4.37182 16.903 4.57835 16.5433C4.84355 16.0829 5.14096 15.6418 5.46835 15.2233L5.70834 14.9233C6.01893 14.5366 6.35289 14.1692 6.70834 13.8233L6.97835 13.5733C7.52736 13.0956 8.11243 12.661 8.72835 12.2733C9.31431 11.9036 9.92208 11.5697 10.5483 11.2733L11.1483 11.0033C11.3483 10.9133 11.5383 10.8333 11.7383 10.7633C12.951 10.2969 14.2025 9.93885 15.4783 9.69331C16.1068 9.54006 16.7514 9.46286 17.3983 9.46333H20.2583C22.6746 9.45804 24.9902 8.49516 26.6978 6.78569C28.4054 5.07622 29.3657 2.75956 29.3683 0.343323L17.4683 0.343323C15.2404 0.345762 13.0351 0.79054 10.9804 1.65186C8.92565 2.51317 7.06239 3.77389 5.49866 5.36087C3.93493 6.94786 2.70186 8.82953 1.87096 10.8967C1.04007 12.964 0.627899 15.1756 0.658348 17.4033C0.689765 20.4995 1.59068 23.5245 3.25835 26.1333C3.07439 24.9896 2.99739 23.8313 3.02834 22.6733Z"
        fill="url(#paint0_linear_15_3)" />
    <path
        d="M17.1383 25.2433C15.2404 25.1609 13.4357 24.3974 12.055 23.0926C10.6743 21.7878 9.80999 20.0291 9.62048 18.1389C9.43097 16.2486 9.92895 14.3534 11.0232 12.8004C12.1174 11.2475 13.7346 10.1409 15.5783 9.68335C14.3025 9.92888 13.051 10.2869 11.8383 10.7533C11.6383 10.8233 11.4483 10.9033 11.2483 10.9933L10.6483 11.2633C10.0221 11.5597 9.4143 11.8936 8.82834 12.2633C8.21243 12.651 7.62735 13.0856 7.07834 13.5634L6.80835 13.8134C6.45289 14.1593 6.11893 14.5266 5.80835 14.9133L5.56834 15.2133C5.24096 15.6318 4.94355 16.0729 4.67834 16.5334C4.47181 16.893 4.28488 17.2635 4.11835 17.6433C4.00835 17.9033 3.89835 18.1633 3.80835 18.4433C3.65794 18.866 3.53108 19.2966 3.42834 19.7333C3.35501 20.0333 3.29501 20.3433 3.24834 20.6633C3.24834 20.9833 3.15835 21.3033 3.12835 21.6633C3.09835 22.0233 3.12835 22.3433 3.12835 22.6633C3.11391 23.8229 3.20765 24.9812 3.40835 26.1234C4.96884 28.5232 7.10457 30.4948 9.62127 31.8588C12.138 33.2228 14.9558 33.9359 17.8183 33.9333H18.5283C20.7347 33.937 22.9123 33.4329 24.8926 32.4601C26.8729 31.4873 28.6028 30.0719 29.9483 28.3233C30.4967 27.5937 30.8309 26.7257 30.9133 25.8168C30.9957 24.9078 30.8232 23.9939 30.415 23.1775C30.0068 22.3612 29.3792 21.6748 28.6026 21.1953C27.8259 20.7159 26.931 20.4624 26.0183 20.4633C25.6913 20.4619 25.3694 20.5449 25.0839 20.7043C24.7983 20.8638 24.5587 21.0942 24.3883 21.3734C23.6512 22.6215 22.5849 23.6427 21.3062 24.3253C20.0274 25.0079 18.5855 25.3255 17.1383 25.2433Z"
        fill="url(#paint1_linear_15_3)" />
    <path
        d="M13.4984 17.3734C13.4984 19.6598 15.3519 21.5133 17.6384 21.5133C19.9248 21.5133 21.7784 19.6598 21.7784 17.3734C21.7784 15.0869 19.9248 13.2333 17.6384 13.2333C15.3519 13.2333 13.4984 15.0869 13.4984 17.3734Z"
        fill="url(#paint2_linear_15_3)" />
    <defs>
        <linearGradient id="paint0_linear_15_3" x1="32.5183" y1="-18.8267" x2="12.2384" y2="11.7833"
            gradientUnits="userSpaceOnUse">
            <stop stop-color="#2AF2DE" />
            <stop offset="1" stop-color="#07E8BD" />
        </linearGradient>
        <linearGradient id="paint1_linear_15_3" x1="-2.45165" y1="13.6733" x2="28.1183" y2="28.1733"
            gradientUnits="userSpaceOnUse">
            <stop stop-color="#0063F2" />
            <stop offset="1" stop-color="#1E90FF" />
        </linearGradient>
        <linearGradient id="paint2_linear_15_3" x1="13.9184" y1="19.3233" x2="19.7984" y2="16.2433"
            gradientUnits="userSpaceOnUse">
            <stop stop-color="#2B2B2B" />
            <stop offset="1" stop-color="#000000" />
        </linearGradient>
    </defs>
</svg>