<?xml version="1.0" encoding="UTF-8"?>
<svg id="Layer_1" data-name="Layer 1" xmlns="http://www.w3.org/2000/svg" width="512" height="512" xmlns:xlink="http://www.w3.org/1999/xlink" viewBox="0 0 1024 1024">
  <defs>
    <linearGradient id="New_Gradient_Swatch" data-name="New Gradient Swatch" x1="724.3" y1="-72.66" x2="455.11" y2="333.64" gradientUnits="userSpaceOnUse">
      <stop offset="0" stop-color="#07e8bd"/>
      <stop offset="1" stop-color="#2af2de"/>
    </linearGradient>
    <linearGradient id="New_Gradient_Swatch_copy" data-name="New Gradient Swatch copy" x1="259.98" y1="358.84" x2="665.94" y2="551.31" gradientUnits="userSpaceOnUse">
      <stop offset="0" stop-color="#0063f2"/>
      <stop offset="1" stop-color="#1e90ff"/>
    </linearGradient>
    <linearGradient id="linear-gradient" x1="728.32" y1="-70" x2="459.13" y2="336.3" gradientUnits="userSpaceOnUse">
      <stop offset="0" stop-color="#07e8bd"/>
      <stop offset="1" stop-color="#2af2de"/>
    </linearGradient>
    <linearGradient id="linear-gradient-2" x1="324.74" y1="248.78" x2="719.34" y2="417.65" gradientUnits="userSpaceOnUse">
      <stop offset="0" stop-color="#0063f2"/>
      <stop offset="1" stop-color="#1e90ff"/>
    </linearGradient>
    <linearGradient id="New_Gradient_Swatch_copy_2" data-name="New Gradient Swatch copy 2" x1="477.37" y1="433.83" x2="555.4" y2="392.96" gradientUnits="userSpaceOnUse">
      <stop offset="0" stop-color="#ffffff"/>
      <stop offset="1" stop-color="#e5e5e5"/>
    </linearGradient>
    <linearGradient id="New_Gradient_Swatch_copy_3" data-name="New Gradient Swatch copy 2" x1="477.37" y1="433.83" x2="555.4" y2="392.96" gradientUnits="userSpaceOnUse">
      <stop offset="0" stop-color="#161616"/>
      <stop offset="1" stop-color="#0f0e0e"/>
    </linearGradient>
  </defs>
  <g>
    <path d="m332.83,478.34c.08-4.71.32-9.29.7-13.75.38-4.46.91-8.8,1.57-13.02.66-4.22,1.46-8.32,2.39-12.31,1.39-5.98,3.06-11.7,4.99-17.16,1.29-3.65,2.69-7.18,4.19-10.61,2.26-5.14,4.74-10.04,7.44-14.71,3.59-6.23,7.54-12.04,11.78-17.48,1.06-1.36,2.14-2.69,3.23-4,4.38-5.24,9.03-10.11,13.87-14.63,1.21-1.13,2.43-2.24,3.67-3.32,7.41-6.52,15.22-12.26,23.18-17.32,7.96-5.06,16.08-9.44,24.1-13.22,2.67-1.26,5.34-2.46,7.98-3.59,2.64-1.13,5.27-2.2,7.86-3.21,19.48-7.59,37.32-11.84,49.67-14.14,8.16-2.04,16.69-3.13,25.48-3.13.15,0,.3.01.45.01.42,0,.84-.03,1.27-.03h35.03c33.43,0,63.68-13.54,85.6-35.46,21.88-21.88,35.42-52.17,35.42-85.56h-158.2c-124.23,0-225.06,101.98-223.17,226.63.65,42.72,13.51,82.36,35.19,115.88-2.79-16.48-3.94-31.73-3.69-45.86Z" style="fill: url(#New_Gradient_Swatch);"/>
    <path d="m520.14,512.35c-53.92-2.41-97.67-46.25-99.97-100.18-2.18-51.13,32.28-94.59,79.29-106.33-12.35,2.31-30.2,6.55-49.67,14.14-2.59,1.01-5.22,2.08-7.86,3.21-2.64,1.13-5.31,2.33-7.98,3.59-8.02,3.78-16.14,8.16-24.1,13.22-7.96,5.06-15.77,10.81-23.18,17.32-1.23,1.09-2.46,2.19-3.67,3.32-4.85,4.52-9.49,9.39-13.87,14.63-1.09,1.31-2.17,2.65-3.23,4-4.24,5.43-8.19,11.25-11.78,17.48-2.69,4.67-5.18,9.57-7.44,14.71-1.5,3.43-2.9,6.96-4.19,10.61-1.93,5.47-3.6,11.19-4.99,17.16-.93,3.99-1.72,8.09-2.39,12.31-.66,4.22-1.19,8.56-1.57,13.02-.38,4.46-.62,9.04-.7,13.75-.24,14.13.91,29.38,3.69,45.86,40.46,62.57,111.6,103.78,191.34,103.78h9.48c61.68,0,116.55-29.18,151.54-74.5,32.88-42.57,1.69-104.43-52.1-104.43h0c-8.83,0-17.16,4.5-21.67,12.09-19.04,32-54.63,53.01-94.97,51.22Z" style="fill: url(#New_Gradient_Swatch_copy);"/>
    <path d="m499.45,305.85s0,0,0,0c-12.35,2.31-30.2,6.55-49.67,14.14,19.47-7.59,37.32-11.83,49.67-14.14Z" style="fill: url(#linear-gradient);"/>
    <path d="m499.45,305.85s0,0,0,0c-12.35,2.31-30.2,6.55-49.67,14.14,19.47-7.59,37.32-11.83,49.67-14.14Z" style="fill: url(#linear-gradient-2);"/>
    <circle cx="526.83" cy="407.93" r="55" style="fill: url(#New_Gradient_Swatch_copy_2);"/>
  </g>
  <g>
    <path d="m156.01,707.88c12.2,0,22.63,3.4,31.29,10.21,8.75,6.81,14.01,16,15.78,27.58l-21.35,1.86c-1.41-6.89-4.42-12.2-9.02-15.91-4.6-3.71-10.39-5.57-17.37-5.57-8.75,0-15.78,3.01-21.08,9.02-5.22,6.01-7.82,13.97-7.82,23.87,0,10.52,2.7,18.61,8.09,24.26,5.48,5.75,12.46,8.62,20.95,8.62,6.98,0,12.77-1.81,17.37-5.44,4.59-3.62,7.56-8.84,8.88-15.65l21.48,1.86c-1.86,11.4-7.12,20.51-15.78,27.31-8.58,6.72-19.01,10.08-31.29,10.08-14.85,0-27-4.6-36.46-13.79-9.37-9.1-14.05-21.52-14.05-37.26s4.68-28.15,14.05-37.26c9.46-9.19,21.57-13.79,36.33-13.79Z" style="fill:;"/>
    <path d="m288.33,774.31c0,10.61-3.45,19.22-10.34,25.85-6.81,6.54-15.51,9.81-26.12,9.81s-19.27-3.27-26.25-9.81c-6.81-6.63-10.21-15.25-10.21-25.85s3.4-19.31,10.21-25.86c6.98-6.54,15.73-9.81,26.25-9.81s19.31,3.27,26.12,9.81c6.89,6.45,10.34,15.07,10.34,25.86Zm-24.26-13.92c-3.1-3.45-7.16-5.17-12.2-5.17s-9.11,1.72-12.2,5.17c-3.09,3.36-4.64,8-4.64,13.92s1.55,10.56,4.64,13.92c3.09,3.36,7.16,5.04,12.2,5.04s9.1-1.68,12.2-5.04c3.09-3.36,4.64-8,4.64-13.92s-1.55-10.56-4.64-13.92Z" style="fill:;"/>
    <path d="m341.23,739.3v18.69c-5.57,0-9.99,1.44-13.26,4.31-3.27,2.87-4.9,6.7-4.9,11.47v34.74h-19.36v-68.55h18.69v7.82c3.53-5.66,9.81-8.49,18.83-8.49Z" style="fill:;"/>
    <path d="m392.41,738.64c9.81,0,17.77,3.27,23.86,9.81,6.19,6.45,9.28,15.07,9.28,25.86s-3.1,19.4-9.28,25.85c-6.1,6.54-14.05,9.81-23.86,9.81-8.49,0-14.89-2.43-19.22-7.29v39.64h-19.36v-102.36h18.3v7.16c4.24-5.66,11.01-8.48,20.29-8.48Zm-3.05,16.57c-4.86,0-8.77,1.59-11.74,4.77-2.96,3.18-4.44,7.43-4.44,12.73v3.18c0,5.3,1.48,9.55,4.44,12.73s6.87,4.77,11.74,4.77,9.06-1.7,12.07-5.11c3-3.4,4.51-8.06,4.51-13.99s-1.5-10.58-4.51-13.99c-3.01-3.4-7.03-5.1-12.07-5.1Z" style="fill:;"/>
    <path d="m479.51,738.64c9.81,0,17.77,3.27,23.86,9.81,6.19,6.45,9.28,15.07,9.28,25.86s-3.1,19.4-9.28,25.85c-6.1,6.54-14.05,9.81-23.86,9.81-8.49,0-14.89-2.43-19.22-7.29v39.64h-19.36v-102.36h18.3v7.16c4.24-5.66,11.01-8.48,20.29-8.48Zm-3.05,16.57c-4.86,0-8.77,1.59-11.74,4.77-2.96,3.18-4.44,7.43-4.44,12.73v3.18c0,5.3,1.48,9.55,4.44,12.73s6.87,4.77,11.74,4.77,9.06-1.7,12.07-5.11c3-3.4,4.51-8.06,4.51-13.99s-1.5-10.58-4.51-13.99c-3.01-3.4-7.03-5.1-12.07-5.1Z" style="fill:;"/>
    <path d="m557.34,738.64c9.37,0,16.18,2.83,20.42,8.48v-7.16h18.16v68.55h-18.16v-7.03c-2.04,2.57-4.84,4.62-8.42,6.17-3.58,1.54-7.58,2.32-12,2.32-9.64,0-17.59-3.27-23.87-9.81-6.1-6.45-9.15-15.07-9.15-25.85s3.05-19.4,9.15-25.86c6.27-6.54,14.23-9.81,23.87-9.81Zm3.18,16.57c-5.04,0-9.06,1.7-12.07,5.1-3.01,3.4-4.51,8.07-4.51,13.99s1.5,10.56,4.51,13.92c3,3.36,7.03,5.04,12.07,5.04s8.77-1.54,11.73-4.64c2.96-3.09,4.44-7.38,4.44-12.86v-3.05c0-5.3-1.48-9.55-4.44-12.73s-6.87-4.77-11.73-4.77Z"/>
    <path d="m652.67,739.3v18.69c-5.57,0-9.99,1.44-13.26,4.31s-4.9,6.7-4.9,11.47v34.74h-19.36v-68.55h18.69v7.82c3.53-5.66,9.81-8.49,18.83-8.49Z"/>
    <path d="m684.63,705.5v58.87l22.14-24.4h23.47l-25.85,29.3,27.71,39.25h-23.47l-17.9-24.79-6.1,6.63v18.16h-19.36v-103.02h19.36Z" style="fill:;"/>
    <path d="m793.34,709.34v99.18h-20.55v-99.18h20.55Z" style="fill:;"/>
    <path d="m918.37,804.27l-14.32,14.58-15.65-15.51c-8.13,4.42-17.15,6.63-27.05,6.63-15.03,0-27.4-4.64-37.13-13.92-9.63-9.37-14.45-21.74-14.45-37.12s4.82-27.71,14.45-36.99c9.63-9.37,22.01-14.05,37.13-14.05s27.36,4.68,36.99,14.05c9.63,9.28,14.45,21.61,14.45,36.99,0,11.93-3.05,22.19-9.15,30.76l14.72,14.58Zm-57.01-12.46c4.68,0,9.02-.84,12.99-2.52l-14.98-14.85,14.32-14.32,14.98,14.85c2.12-4.68,3.18-10.03,3.18-16.04,0-10.25-2.83-18.25-8.48-24-5.57-5.92-12.91-8.88-22.01-8.88s-16.62,2.96-22.28,8.88c-5.66,5.75-8.48,13.75-8.48,24s2.83,18.08,8.48,24c5.66,5.92,13.08,8.88,22.28,8.88Z" style="fill:;"/>
  </g>
</svg>