<?xml version="1.0" encoding="UTF-8"?>
<svg id="Layer_1" data-name="Layer 1" xmlns="http://www.w3.org/2000/svg" width="512" height="512" xmlns:xlink="http://www.w3.org/1999/xlink" viewBox="0 0 512 512">
  <defs>
    <linearGradient id="New_Gradient_Swatch" data-name="New Gradient Swatch" x1="439.35" y1="-137.5" x2="217.5" y2="197.34" gradientUnits="userSpaceOnUse">
      <stop offset="0" stop-color="#07e8bd"/>
      <stop offset="1" stop-color="#2af2de"/>
    </linearGradient>
    <linearGradient id="New_Gradient_Swatch_copy" data-name="New Gradient Swatch copy" x1="56.69" y1="218.1" x2="391.25" y2="376.72" gradientUnits="userSpaceOnUse">
      <stop offset="0" stop-color="#0063f2"/>
      <stop offset="1" stop-color="#1e90ff"/>
    </linearGradient>
    <linearGradient id="linear-gradient" x1="442.66" y1="-135.31" x2="220.81" y2="199.53" gradientUnits="userSpaceOnUse">
      <stop offset="0" stop-color="#07e8bd"/>
      <stop offset="1" stop-color="#2af2de"/>
    </linearGradient>
    <linearGradient id="linear-gradient-2" x1="110.06" y1="127.4" x2="435.26" y2="266.57" gradientUnits="userSpaceOnUse">
      <stop offset="0" stop-color="#0063f2"/>
      <stop offset="1" stop-color="#1e90ff"/>
    </linearGradient>
    <linearGradient id="New_Gradient_Swatch_copy_2" data-name="New Gradient Swatch copy 2" x1="235.85" y1="279.91" x2="300.15" y2="246.22" gradientUnits="userSpaceOnUse">
      <stop offset="0" stop-color="#ffffff"/>
      <stop offset="1" stop-color="#e5e5e5"/>
    </linearGradient>
  </defs>
  <path d="m116.73,316.58c.07-3.88.26-7.66.57-11.33.31-3.68.75-7.25,1.29-10.73.55-3.48,1.2-6.86,1.97-10.14,1.14-4.93,2.52-9.64,4.11-14.14,1.06-3,2.21-5.92,3.45-8.74,1.86-4.24,3.91-8.28,6.13-12.12,2.96-5.13,6.22-9.92,9.71-14.4.87-1.12,1.76-2.22,2.66-3.3,3.61-4.32,7.44-8.33,11.43-12.06,1-.93,2.01-1.84,3.02-2.74,6.11-5.37,12.54-10.1,19.1-14.28,6.56-4.17,13.25-7.78,19.86-10.9,2.2-1.04,4.4-2.03,6.58-2.96,2.18-.93,4.34-1.82,6.48-2.65,16.05-6.25,30.76-9.75,40.94-11.65,6.72-1.68,13.76-2.58,21-2.58.12,0,.25,0,.37,0,.35,0,.69-.03,1.04-.03h28.87c27.55,0,52.48-11.16,70.54-29.22,18.03-18.03,29.19-42.99,29.19-70.51h-130.38c-102.38,0-185.48,84.05-183.91,186.77.54,35.2,11.13,67.87,29,95.5-2.3-13.58-3.24-26.15-3.04-37.79Z" style="fill: url(#New_Gradient_Swatch);"/>
  <path d="m271.09,344.61c-44.44-1.98-80.49-38.12-82.39-82.56-1.8-42.14,26.6-77.95,65.34-87.63-10.18,1.9-24.89,5.4-40.93,11.65-2.14.83-4.3,1.72-6.48,2.65-2.18.93-4.37,1.92-6.58,2.96-6.61,3.12-13.3,6.73-19.86,10.9-6.56,4.17-13,8.9-19.1,14.28-1.02.9-2.03,1.81-3.02,2.74-3.99,3.72-7.82,7.73-11.43,12.06-.9,1.08-1.79,2.18-2.66,3.3-3.49,4.48-6.75,9.27-9.71,14.4-2.22,3.85-4.27,7.89-6.13,12.12-1.24,2.82-2.39,5.74-3.45,8.74-1.59,4.51-2.97,9.22-4.11,14.14-.76,3.28-1.42,6.66-1.97,10.14-.55,3.48-.98,7.05-1.29,10.73-.31,3.68-.51,7.45-.57,11.33-.2,11.64.75,24.21,3.04,37.79,33.34,51.56,91.97,85.53,157.69,85.53h7.81c50.84,0,96.05-24.05,124.89-61.4,27.09-35.08,1.39-86.06-42.94-86.06h0c-7.28,0-14.14,3.71-17.86,9.97-15.69,26.38-45.02,43.69-78.27,42.21Z" style="fill: url(#New_Gradient_Swatch_copy);"/>
  <path d="m254.04,174.43s0,0,0,0c-10.18,1.9-24.89,5.4-40.94,11.65,16.05-6.25,30.76-9.75,40.93-11.65Z" style="fill: url(#linear-gradient);"/>
  <path d="m254.04,174.43s0,0,0,0c-10.18,1.9-24.89,5.4-40.94,11.65,16.05-6.25,30.76-9.75,40.93-11.65Z" style="fill: url(#linear-gradient-2);"/>
  <circle cx="276.6" cy="258.56" r="45.32" style="fill: url(#New_Gradient_Swatch_copy_2);"/>
</svg>