<svg width="41" height="41" viewBox="0 0 41 41" fill="none" xmlns="http://www.w3.org/2000/svg">
<g clip-path="url(#clip0_358_291)">
<path d="M20.5 34.79C20.0836 34.79 19.6843 34.6245 19.3898 34.3301C19.0954 34.0357 18.93 33.6363 18.93 33.22V23.4C18.93 22.9836 19.0954 22.5842 19.3898 22.2898C19.6843 21.9954 20.0836 21.83 20.5 21.83C20.9164 21.83 21.3157 21.9954 21.6101 22.2898C21.9046 22.5842 22.07 22.9836 22.07 23.4V33.22C22.07 33.6363 21.9046 34.0357 21.6101 34.3301C21.3157 34.6245 20.9164 34.79 20.5 34.79Z" fill="rgb(100, 116, 139)" />
<path d="M20.5 18C20.0836 18 19.6843 17.8346 19.3898 17.5402C19.0954 17.2457 18.93 16.8464 18.93 16.43V1.70001C18.93 1.49383 18.9706 1.28967 19.0495 1.09919C19.1284 0.908711 19.244 0.735635 19.3898 0.589847C19.5356 0.444059 19.7087 0.328414 19.8992 0.249514C20.0897 0.170614 20.2938 0.130005 20.5 0.130005C20.7062 0.130005 20.9103 0.170614 21.1008 0.249514C21.2913 0.328414 21.4644 0.444059 21.6101 0.589847C21.7559 0.735635 21.8716 0.908711 21.9505 1.09919C22.0294 1.28967 22.07 1.49383 22.07 1.70001V16.46C22.0621 16.8712 21.8933 17.2628 21.5997 17.5508C21.3061 17.8388 20.9112 18.0001 20.5 18Z" fill="rgb(100, 116, 139)" />
<path d="M20.5 35.39C20.0843 35.3867 19.6862 35.2217 19.39 34.93L14.23 29.77C13.9437 29.4739 13.7853 29.0773 13.7888 28.6655C13.7922 28.2537 13.9573 27.8597 14.2485 27.5685C14.5397 27.2773 14.9337 27.1122 15.3455 27.1087C15.7573 27.1053 16.1539 27.2637 16.45 27.55L20.5 31.6L32.5 19.6C32.6451 19.453 32.8179 19.3364 33.0085 19.2567C33.199 19.1771 33.4035 19.1361 33.61 19.1361C33.8165 19.1361 34.021 19.1771 34.2115 19.2567C34.402 19.3364 34.5749 19.453 34.72 19.6C35.0119 19.8957 35.1756 20.2945 35.1756 20.71C35.1756 21.1255 35.0119 21.5243 34.72 21.82L21.61 34.93C21.3138 35.2217 20.9157 35.3867 20.5 35.39Z" fill="rgb(100, 116, 139)" />
<path d="M11.82 26.71C11.6137 26.7105 11.4095 26.6701 11.2189 26.5912C11.0284 26.5122 10.8554 26.3963 10.71 26.25L6.70999 22.25C6.56553 22.0997 6.45211 21.9223 6.37619 21.7281C6.30028 21.5339 6.26335 21.3267 6.26753 21.1182C6.27597 20.6972 6.45131 20.2968 6.75499 20.005C7.05866 19.7133 7.46579 19.5541 7.88681 19.5626C8.30782 19.571 8.70825 19.7464 8.99999 20.05L13 24.05C13.2195 24.2696 13.369 24.5493 13.4295 24.8538C13.4901 25.1583 13.459 25.474 13.3402 25.7608C13.2214 26.0476 13.0202 26.2928 12.7621 26.4653C12.5039 26.6379 12.2005 26.73 11.89 26.73L11.82 26.71Z" fill="rgb(100, 116, 139)" />
<path d="M38.93 40.87H2.07C1.67396 40.8384 1.30435 40.6588 1.03482 40.3669C0.765279 40.075 0.615601 39.6923 0.615601 39.295C0.615601 38.8977 0.765279 38.515 1.03482 38.2231C1.30435 37.9312 1.67396 37.7516 2.07 37.72H38.93C39.326 37.7516 39.6957 37.9312 39.9652 38.2231C40.2347 38.515 40.3844 38.8977 40.3844 39.295C40.3844 39.6923 40.2347 40.075 39.9652 40.3669C39.6957 40.6588 39.326 40.8384 38.93 40.87Z" fill="rgb(100, 116, 139)" />
<path d="M2.07002 36.46C1.66735 36.4505 1.28393 36.2857 1.00002 36C0.708112 35.7043 0.544434 35.3055 0.544434 34.89C0.544434 34.4745 0.708112 34.0757 1.00002 33.78L34.15 0.589973C34.4461 0.30373 34.8428 0.145267 35.2545 0.148737C35.6663 0.152207 36.0603 0.317332 36.3515 0.608524C36.6427 0.899716 36.8078 1.29366 36.8113 1.70545C36.8147 2.11725 36.6563 2.51392 36.37 2.80997L3.18002 36C3.0346 36.1462 2.86162 36.2622 2.67109 36.3411C2.48056 36.4201 2.27626 36.4605 2.07002 36.46Z" fill="rgb(100, 116, 139)" />
</g>
<defs>
<clipPath id="clip0_358_291">
<rect width="41" height="41" fill="white"/>
</clipPath>
</defs>
</svg>
