<svg width="41" height="41" viewBox="0 0 41 41" fill="none" xmlns="http://www.w3.org/2000/svg">
<g clip-path="url(#clip0_358_298)">
<path d="M3.90001 30.9399C3.48892 30.9399 3.09467 30.7766 2.80399 30.486C2.51331 30.1953 2.35001 29.801 2.35001 29.3899V4.70994C2.34868 4.50602 2.38786 4.30387 2.46529 4.11522C2.54271 3.92656 2.65683 3.75516 2.80103 3.61097C2.94523 3.46677 3.11663 3.35265 3.30528 3.27523C3.49394 3.1978 3.69609 3.15862 3.90001 3.15994H28.68C28.8836 3.15994 29.0851 3.20004 29.2732 3.27793C29.4612 3.35583 29.6321 3.47 29.776 3.61393C29.92 3.75786 30.0341 3.92873 30.112 4.11679C30.1899 4.30484 30.23 4.5064 30.23 4.70994C30.23 4.91349 30.1899 5.11505 30.112 5.3031C30.0341 5.49116 29.92 5.66203 29.776 5.80596C29.6321 5.94989 29.4612 6.06406 29.2732 6.14196C29.0851 6.21985 28.8836 6.25994 28.68 6.25994H5.46001V29.3899C5.45737 29.8019 5.29185 30.1962 4.99957 30.4866C4.7073 30.777 4.31202 30.94 3.90001 30.9399Z" fill="rgb(100, 116, 139)" />
<path d="M37.48 38.29H5.06001C4.64892 38.29 4.25468 38.1267 3.96399 37.836C3.67331 37.5453 3.51001 37.1511 3.51001 36.74C3.51001 36.3289 3.67331 35.9346 3.96399 35.644C4.25468 35.3533 4.64892 35.19 5.06001 35.19H35.92V4.70998C35.9514 4.3191 36.1288 3.95438 36.417 3.68842C36.7051 3.42246 37.0829 3.27478 37.475 3.27478C37.8671 3.27478 38.2449 3.42246 38.5331 3.68842C38.8212 3.95438 38.9986 4.3191 39.03 4.70998V36.71C39.0354 36.9164 38.9992 37.1218 38.9236 37.3139C38.8479 37.5061 38.7345 37.6811 38.5899 37.8285C38.4453 37.9759 38.2725 38.0927 38.0818 38.172C37.8912 38.2513 37.6865 38.2914 37.48 38.29Z" fill="rgb(100, 116, 139)" />
<path d="M37 32.66C36.7627 32.6608 36.5285 32.6071 36.3152 32.5031C36.102 32.399 35.9154 32.2474 35.77 32.06L30.29 24.94L25.9 29.3C25.7472 29.4559 25.5629 29.5776 25.3595 29.6569C25.1561 29.7362 24.9381 29.7713 24.72 29.76C24.5023 29.7492 24.2892 29.6929 24.0946 29.5947C23.9 29.4965 23.7281 29.3586 23.59 29.19L18.46 22.85C18.3287 22.6917 18.2298 22.5092 18.1691 22.3127C18.1083 22.1162 18.0868 21.9097 18.1058 21.705C18.1249 21.5002 18.1841 21.3012 18.28 21.1194C18.3759 20.9375 18.5068 20.7763 18.665 20.645C18.8233 20.5136 19.0058 20.4148 19.2023 20.354C19.3987 20.2932 19.6052 20.2717 19.81 20.2908C20.0147 20.3098 20.2137 20.369 20.3956 20.4649C20.5775 20.5609 20.7387 20.6917 20.87 20.85L24.92 25.85L29.29 21.45C29.4463 21.293 29.634 21.1708 29.8408 21.0915C30.0476 21.0123 30.2689 20.9776 30.49 20.99C30.711 21.005 30.9262 21.0672 31.1212 21.1724C31.3161 21.2777 31.4862 21.4234 31.62 21.6L38.18 30.12C38.4294 30.448 38.5388 30.8613 38.4845 31.2697C38.4302 31.6782 38.2164 32.0485 37.89 32.3C37.6404 32.5136 37.3279 32.64 37 32.66Z" fill="rgb(100, 116, 139)" />
<path d="M3.90001 26.25C3.59116 26.2488 3.28962 26.1559 3.03359 25.9832C2.77757 25.8104 2.57858 25.5656 2.46185 25.2796C2.34511 24.9937 2.31589 24.6795 2.37787 24.377C2.43985 24.0744 2.59025 23.797 2.81001 23.58L12.87 13.71C13.0253 13.5587 13.2105 13.4414 13.4136 13.3656C13.6168 13.2899 13.8335 13.2573 14.05 13.27C14.2654 13.2851 14.4755 13.3433 14.6679 13.4412C14.8603 13.5391 15.0311 13.6748 15.17 13.84L16.81 15.84C17.0686 16.1596 17.1896 16.5688 17.1465 16.9776C17.1034 17.3865 16.8996 17.7614 16.58 18.02C16.2604 18.2786 15.8512 18.3996 15.4424 18.3565C15.0335 18.3134 14.6586 18.1096 14.4 17.79L13.83 17.09L5.00001 25.8C4.85595 25.9446 4.68441 26.0589 4.49549 26.1362C4.30658 26.2135 4.10411 26.2522 3.90001 26.25Z" fill="rgb(100, 116, 139)" />
<path d="M26.91 20.27C26.2748 20.27 25.6461 20.1416 25.0618 19.8924C24.4775 19.6433 23.9497 19.2785 23.51 18.82C23.2577 18.5172 23.1294 18.13 23.1509 17.7365C23.1723 17.3429 23.342 16.9721 23.6257 16.6985C23.9094 16.4249 24.2862 16.2688 24.6803 16.2617C25.0744 16.2545 25.4566 16.3968 25.75 16.66C25.8993 16.8177 26.0792 16.9433 26.2786 17.0293C26.478 17.1153 26.6929 17.1597 26.91 17.16C27.3406 17.16 27.7537 16.9896 28.0591 16.6861C28.3645 16.3826 28.5374 15.9705 28.54 15.54C28.538 15.1423 28.3924 14.7588 28.13 14.46C27.8555 14.1523 27.7145 13.7482 27.7379 13.3366C27.7614 12.9249 27.9474 12.5395 28.255 12.265C28.5627 11.9905 28.9668 11.8494 29.3784 11.8729C29.7901 11.8963 30.1755 12.0823 30.45 12.39C31.0541 13.073 31.4483 13.9158 31.5854 14.8173C31.7225 15.7187 31.5967 16.6406 31.223 17.4724C30.8493 18.3041 30.2437 19.0105 29.4787 19.5067C28.7137 20.0029 27.8219 20.2679 26.91 20.27Z" fill="rgb(100, 116, 139)" />
<path d="M2.04998 40.5C1.74862 40.4874 1.45734 40.3878 1.21143 40.2132C0.965508 40.0385 0.775492 39.7964 0.664385 39.5159C0.553278 39.2355 0.525845 38.9289 0.585407 38.6332C0.644969 38.3376 0.788972 38.0655 0.999981 37.8499L37.85 0.99995C37.9938 0.855496 38.1646 0.74078 38.3528 0.66235C38.5409 0.583921 38.7426 0.543315 38.9464 0.542851C39.1503 0.542386 39.3522 0.582073 39.5407 0.659644C39.7292 0.737216 39.9005 0.851153 40.045 0.99495C40.1894 1.13875 40.3041 1.30959 40.3826 1.49772C40.461 1.68585 40.5016 1.88759 40.5021 2.09141C40.5025 2.29524 40.4629 2.49716 40.3853 2.68565C40.3077 2.87413 40.1938 3.0455 40.05 3.18995L3.14998 40C3.01055 40.1541 2.841 40.278 2.6518 40.3639C2.4626 40.4499 2.25778 40.4962 2.04998 40.5Z" fill="rgb(100, 116, 139)" />
</g>
<defs>
<clipPath id="clip0_358_298">
<rect width="41" height="41" fill="white"/>
</clipPath>
</defs>
</svg>
