<?xml version="1.0" encoding="UTF-8"?>
<svg id="Layer_2" data-name="Layer 2" xmlns="http://www.w3.org/2000/svg" width="182.88" height="70" viewBox="0 0 182.88 70">
  <g id="Layer_1-2" data-name="Layer 1">
    <g>
      <rect width="182.88" height="70" rx="1.58" ry="1.58" style="fill: #fff;"/>
      <g>
        <path d="m171.48,57.33c0-.54-.09-.87-.26-.99-.17-.13-.61-.19-1.32-.19-.51,0-.85.06-1.02.19-.17.12-.25.38-.25.75s.09.64.26.75c.17.11.6.17,1.28.21,1.76.08,2.9.3,3.41.67.51.36.76,1.13.76,2.3s-.28,2.02-.84,2.42c-.56.4-1.68.61-3.37.61-1.8,0-2.97-.21-3.49-.62-.49-.38-.73-1.18-.73-2.39v-.3h2.75c-.02.58.05.93.21,1.07.16.14.58.21,1.26.21.64,0,1.04-.06,1.21-.17.17-.11.26-.38.26-.8,0-.38-.09-.62-.26-.73-.17-.1-.59-.17-1.26-.2-1.76-.08-2.89-.32-3.41-.72-.51-.4-.76-1.24-.76-2.54,0-1,.31-1.71.92-2.12.61-.41,1.67-.62,3.17-.62,1.71,0,2.82.2,3.33.6.51.4.76,1.27.76,2.62h-2.6Zm-15.06,6.63v-9.75h7.08v2.15h-4.41v1.81h4.13v1.81h-4.13v1.82h4.49v2.15h-7.16Zm-2.87-3.71c.04,1.46-.21,2.46-.77,3-.56.54-1.62.8-3.18.8-1.84,0-3.06-.29-3.65-.87-.59-.58-.89-1.78-.89-3.59v-.99c0-1.82.3-3.02.89-3.6.59-.58,1.81-.88,3.65-.88,1.53,0,2.56.25,3.12.76.56.5.83,1.44.83,2.82v.03h-2.68c0-.56-.1-.92-.29-1.09-.19-.17-.61-.25-1.25-.25-.7,0-1.15.13-1.33.37-.18.25-.27.86-.27,1.83v.99c0,.97.09,1.58.27,1.83.18.25.62.37,1.32.37.66,0,1.09-.1,1.28-.29.19-.19.28-.61.26-1.25h2.68Zm-14.07,3.71v-9.75h2.68v9.75h-2.68Zm-12.1-9.75h2.69l2.15,7.43,2.11-7.43h2.64l-2.82,9.75h-3.95l-2.83-9.75Zm-8.04,5.01h1.53c.62,0,1.03-.09,1.24-.26.2-.17.31-.51.31-1.02v-.63c0-.34-.08-.56-.25-.67-.16-.11-.49-.17-.98-.17h-1.84v2.74Zm-2.68,4.74v-9.75h5.24c1.2,0,2.03.21,2.49.62.46.41.69,1.16.69,2.23v.63c0,1.08-.29,1.82-.88,2.23-.23.16-.54.29-.93.39.52.07.88.17,1.1.31.44.28.65.94.65,1.97v1.36h-2.59v-1.36c0-.41-.09-.69-.26-.86-.17-.17-.47-.25-.88-.25h-1.95v2.47h-2.68Zm-9.97,0v-9.75h7.08v2.15h-4.41v1.81h4.13v1.81h-4.13v1.82h4.49v2.15h-7.16Zm-5.56-6.63c0-.54-.09-.87-.26-.99-.17-.13-.61-.19-1.32-.19-.51,0-.85.06-1.02.19-.17.12-.25.38-.25.75s.09.64.26.75c.17.11.6.17,1.28.21,1.76.08,2.9.3,3.41.67.51.36.76,1.13.76,2.3s-.28,2.02-.84,2.42c-.56.4-1.68.61-3.37.61-1.8,0-2.97-.21-3.49-.62-.49-.38-.73-1.18-.73-2.39v-.3h2.75c-.02.58.05.93.21,1.07.16.14.58.21,1.26.21.64,0,1.04-.06,1.21-.17.17-.11.26-.38.26-.8,0-.38-.09-.62-.26-.73-.17-.1-.59-.17-1.26-.2-1.76-.08-2.89-.32-3.41-.72-.51-.4-.76-1.24-.76-2.54,0-1,.31-1.71.92-2.12.61-.41,1.67-.62,3.17-.62,1.71,0,2.82.2,3.33.6.51.4.76,1.27.76,2.62h-2.6Zm-18.62,4.66c1.06,0,1.68-.02,1.84-.05.08-.01.16-.05.26-.12l-2.86-1.87c-.09.08-.16.15-.19.2-.1.15-.15.49-.15,1.02,0,.35.07.57.21.67.14.1.43.15.9.15Zm-2.84-5.42c0-1.03.23-1.7.69-2,.46-.3,1.47-.46,3.03-.46s2.56.21,3.03.62c.46.41.69,1.31.69,2.69h-2.4c0-.53-.07-.87-.2-1.03-.13-.16-.42-.23-.86-.23-.61,0-1.02.04-1.2.11-.19.08-.28.24-.28.49,0,.36.03.6.1.71.06.12.26.27.58.47l2.54,1.62v-.39h2.56c0,.8-.01,1.46-.06,2l1.31.84-1.32,1.94-.86-.56-.19.17c-.31.26-.59.41-.85.43-.25.03-1.44.04-3.57.04-1.54,0-2.54-.17-3-.5s-.69-1.06-.69-2.19.15-1.83.44-2.25c.16-.23.41-.44.76-.64h0c-.17-.33-.26-.96-.26-1.88Zm-14.96,7.38v-9.75h2.68v7.6h4.04v2.15h-6.72Zm-7.43-7.43l-1.24,4h2.49l-1.25-4Zm-4.97,7.43l3.02-9.75h3.95l3.02,9.75h-2.72l-.51-1.63h-3.61l-.5,1.63h-2.66Zm-7,0v-7.6h-2.56v-2.15h7.79v2.15h-2.56v7.6h-2.68Zm-7.73,0v-9.75h2.68v9.75h-2.68Zm-7.58.09c-1.75,0-2.9-.29-3.46-.87-.56-.58-.84-1.78-.85-3.59v-.99c0-1.82.32-3.02.94-3.6.62-.58,1.9-.88,3.85-.88,1.57,0,2.64.23,3.22.68.57.45.86,1.3.86,2.54h-2.68c0-.4-.11-.65-.33-.77-.22-.12-.69-.17-1.42-.17-.78,0-1.27.13-1.47.37-.2.25-.3.86-.3,1.83v.99c0,.97.11,1.58.32,1.83.22.25.74.37,1.57.37.27,0,.52,0,.73-.03.31-.02.54-.14.68-.33.14-.19.21-.5.21-.91v-.26h-1.76v-1.86h4.43v2.29c0,1.04-.09,1.76-.27,2.17-.18.4-.54.68-1.08.85-.78.23-1.85.35-3.21.35Zm-9.88-.09v-9.75h2.68v9.75h-2.68Zm-8.9-2.27h2.28c.52,0,.85-.13,1-.39.15-.26.23-.84.23-1.72v-.97c0-.89-.07-1.47-.19-1.73-.13-.26-.42-.39-.86-.39h-2.45v5.21Zm-2.68,2.27v-9.75h5.13c1.45,0,2.43.31,2.95.92.52.61.78,1.76.79,3.43v1.01c0,1.7-.27,2.85-.81,3.46-.55.61-1.58.92-3.09.92h-4.95Z" style="fill: #102a83; fill-rule: evenodd;"/>
        <polygon points="149.57 50.23 162.73 50.23 155.9 41.3 149.57 50.23" style="fill: #93a7b0; fill-rule: evenodd;"/>
        <polygon points="112.83 50.23 129.32 50.23 126.99 43.94 115.32 43.94 112.83 50.23" style="fill: #93a7b0; fill-rule: evenodd;"/>
        <polygon points="149.84 18.85 162.47 18.85 155.94 27.7 149.84 18.85" style="fill: #93a7b0; fill-rule: evenodd;"/>
        <path d="m9.14,25.8v-5.75l11.17-12.74c1.26-1.64,2.3-1.63,3.12,0l5.12,9.23c1.17,1.85,1.99,2.33,3.8.16l9.48-9.93c.9-1.15,1.8-1.1,2.7.14l5.19,8.96c.9,1.7,2.25,2.51,4.04,2.43h4.79v6.21h-4.79s-.04,0-.04,0c-.71.03-1.33-.11-1.85-.42-.53-.32-.98-.83-1.35-1.53l-.02-.03-5.17-8.93s-.04-.08-.07-.11c-1.36-1.87-2.73-1.94-4.11-.21l-9.46,9.91h0s-.03.03-.04.05c-.68.81-1.08,1.14-1.31,1.11-.24-.03-.57-.47-1.02-1.17l-5.07-9.13v-.02c-.3-.58-.63-1.01-1-1.3-.33-.25-.68-.4-1.06-.43-.37-.03-.74.05-1.11.23-.49.24-.98.68-1.47,1.32l-10.46,11.94Z" style="fill: #b4ccd6; fill-rule: evenodd;"/>
        <path d="m9.14,34.42v-7.24l11.17-12.74c1.26-1.64,2.3-1.63,3.12,0l5.12,9.23c1.17,1.85,1.99,2.33,3.8.16l9.48-9.93c.9-1.15,1.8-1.1,2.7.14l5.19,8.96c.9,1.7,2.25,2.51,4.04,2.43h4.79v7.71h-4.79s-.04,0-.04,0c-.72.03-1.33-.11-1.85-.42-.53-.32-.98-.83-1.35-1.53l-.02-.03-5.17-8.93s-.04-.08-.07-.11c-1.36-1.87-2.73-1.94-4.11-.21l-9.46,9.91h0s-.03.03-.04.05c-.68.81-1.08,1.14-1.31,1.11-.24-.03-.57-.47-1.02-1.17h0s-5.07-9.13-5.07-9.13v-.02c-1.25-2.5-2.8-2.55-4.65-.18l-10.46,11.94Z" style="fill: #93a7b0; fill-rule: evenodd;"/>
        <path d="m9.14,50.23v-14.43l11.17-12.74c1.26-1.64,2.3-1.63,3.12,0l5.12,9.23c1.17,1.85,1.99,2.33,3.8.16l9.48-9.93c.9-1.15,1.8-1.1,2.7.14l5.19,8.96c.9,1.7,2.25,2.51,4.04,2.43h4.79v15.17h-3.77c-1.51.1-2.66-.59-3.57-1.82l-5.73-10.52c-.83-1.24-2-1.05-2.9-.2l-9.64,9.84c-1.92,2.04-2.87,1.63-3.91,0l-4.99-9.17c-.76-1.14-1.81-1.16-2.83-.07l-12.07,12.94Z" style="fill: #102a83; fill-rule: evenodd;"/>
        <polygon points="75.21 18.85 91.27 18.85 83.4 40.95 75.21 18.85" style="fill: #93a7b0; fill-rule: evenodd;"/>
        <path d="m172.99,50.23h-9.12l-8-10.46-7.42,10.46h-9.34l12.2-15.58-11.93-15.76h9.39l7.15,10.37,7.64-10.37h9.12l-12.02,15.67,12.34,15.67Zm-47.78-12.65l-4.25-11-4.11,11h8.36Zm12.87,12.56h-7.82l-2.64-7.11h-12.92l-2.82,7.11h-7.73l12.83-31.24h7.64l13.45,31.24Zm-35,0h-6.75v-23.87l-8.85,23.87h-8.05l-9.12-24.41v24.41h-6.53v-31.24h10.46l9.16,24.72,8.81-24.72h10.86v31.24Z" style="fill: #102a83; fill-rule: evenodd;"/>
        <path d="m165.92,14.87c-.02-.15,0-.28.08-.37.07-.1.17-.15.29-.15.18,0,.3.06.36.18.25.39.59.6,1.01.62.21-.01.38-.06.53-.15.15-.08.22-.22.22-.4,0-.17-.08-.3-.24-.39-.16-.09-.41-.17-.74-.24-.45-.09-.79-.23-1.03-.41-.23-.18-.35-.44-.36-.77.01-.08.02-.15.02-.19,0-.04,0-.08.01-.13.08-.44.31-.76.7-.97.39-.21.84-.31,1.35-.31.41,0,.77.05,1.09.16.27.1.43.19.47.27.04.08.07.25.08.51.02.29-.06.45-.25.47-.15-.02-.28-.12-.39-.3-.21-.32-.5-.48-.88-.48-.19,0-.35.04-.49.12-.14.08-.21.21-.22.38.02.27.29.44.78.51,1.17.21,1.73.7,1.66,1.45-.04.33-.16.61-.36.83-.21.23-.47.4-.78.51-.31.11-.65.17-1,.17-.46-.01-.88-.11-1.27-.3-.39-.19-.61-.4-.65-.63Zm-2.26.23c-.2.22-.44.4-.72.52-.28.12-.56.18-.86.18-.42,0-.77-.13-1.05-.39-.28-.26-.42-.65-.42-1.16v-1.89c0-.16-.06-.29-.17-.38-.12-.09-.17-.18-.17-.26,0-.09.05-.16.14-.2.09-.04.3-.11.63-.19.35-.07.56-.1.63-.1.3,0,.45.18.45.53v2.46c0,.26.06.46.18.61.12.14.27.22.44.23.22-.01.41-.1.57-.26.16-.16.25-.37.25-.63v-1.81c0-.1-.01-.17-.04-.21-.03-.05-.07-.09-.11-.13-.05-.04-.09-.08-.13-.12-.04-.04-.06-.09-.07-.16,0-.09.06-.16.17-.21.11-.05.34-.12.69-.2.41-.07.64-.1.68-.1.21,0,.32.09.32.26v3.21c0,.17.08.3.23.39.16.09.23.19.23.31,0,.19-.12.28-.37.28h-.98c-.17,0-.29-.04-.36-.13-.07-.08-.11-.23-.13-.43Zm-5.49-2.96c.1-.22.26-.43.49-.63.23-.2.45-.31.65-.31.22,0,.41.06.54.19.14.13.21.28.21.47,0,.15-.05.29-.14.42-.09.14-.22.21-.39.21-.3-.07-.47-.1-.52-.1-.43,0-.64.39-.64,1.17v1.11c0,.12.02.21.06.26.04.05.1.1.18.14.08.04.14.07.17.11.04.03.05.09.05.18,0,.19-.15.28-.47.28h-1.5c-.16,0-.28-.02-.36-.07-.07-.05-.11-.12-.11-.21s.08-.19.23-.28c.16-.09.23-.24.23-.45v-1.79c0-.21-.03-.36-.08-.46-.05-.09-.13-.16-.21-.2-.09-.04-.17-.08-.23-.12-.07-.04-.1-.11-.1-.2,0-.21.32-.41.97-.59.1-.03.17-.04.23-.06.06-.01.12-.02.2-.02.3,0,.47.31.53.94Zm-5.5,2.56v-4.72c0-.15-.02-.24-.07-.28-.05-.04-.17-.06-.38-.06-.41,0-.77.19-1.07.57-.09.13-.21.2-.36.22-.08,0-.15-.04-.21-.12-.06-.08-.1-.18-.11-.29.02-.05.04-.18.06-.4.02-.22.06-.38.12-.49.06-.11.16-.16.3-.16h5.11c.1,0,.18.04.23.12.05.08.1.24.14.47.04.23.07.36.07.38.03.12,0,.23-.06.32-.07.09-.16.14-.28.15-.14-.02-.26-.1-.36-.22-.13-.18-.29-.31-.49-.41-.2-.09-.38-.14-.53-.14-.21,0-.34.02-.39.06-.05.04-.08.12-.08.24v4.77c0,.11.04.19.12.24.08.05.16.1.24.15.08.05.12.13.12.24,0,.2-.12.3-.36.3h-1.83c-.29,0-.43-.11-.43-.32,0-.09.02-.15.05-.18.04-.04.1-.08.18-.12.09-.04.15-.09.19-.13.04-.04.06-.11.06-.2Zm-9.01-2.86c.37-.44.86-.66,1.46-.66,1.12.04,1.68.62,1.68,1.76v1.78c0,.17.06.3.19.38.13.08.19.17.18.26,0,.19-.11.28-.33.28h-1.53c-.25,0-.37-.09-.37-.28,0-.09.05-.16.14-.22.09-.06.15-.11.18-.15.03-.03.05-.12.05-.26v-1.85c0-.29-.05-.52-.14-.68-.09-.16-.27-.25-.52-.25-.57,0-.86.33-.86.98v1.81c0,.17.06.29.19.37.12.08.19.16.19.26,0,.19-.11.28-.32.28h-1.55c-.25,0-.37-.09-.37-.28,0-.09.05-.16.15-.23.1-.07.16-.12.18-.14.02-.06.04-.16.04-.29v-2.21c0-.16-.08-.29-.23-.37-.15-.09-.23-.17-.23-.25,0-.12.11-.23.33-.35.22-.12.49-.21.81-.29.11-.02.19-.04.23-.04.13,0,.23.05.29.14.07.09.12.26.15.5Zm-3.95,3.24c-.13.23-.32.41-.59.52-.26.12-.55.18-.85.18-.44,0-.82-.12-1.14-.36-.32-.24-.48-.57-.49-1-.02-.6.26-1.03.83-1.28.57-.25,1.18-.37,1.85-.37h.29c-.02-.27-.1-.5-.24-.69-.14-.19-.34-.28-.6-.28-.17,0-.38.09-.63.28-.25.19-.46.29-.62.31-.16-.01-.29-.06-.4-.16-.11-.09-.15-.21-.13-.36.04-.33.48-.55,1.33-.66.11-.01.29-.02.56-.02.64,0,1.17.13,1.61.39.44.26.65.68.65,1.26v1.85c0,.1.02.18.06.24.04.05.1.1.17.13.07.03.12.06.16.1.04.04.06.1.06.2,0,.19-.12.28-.36.28h-1.12c-.15,0-.26-.04-.32-.11-.06-.08-.09-.23-.09-.46Zm-.06-1.74c-.4-.03-.75.04-1.03.22-.29.18-.43.45-.43.81,0,.43.17.66.52.68.25-.01.47-.12.66-.33.19-.21.29-.47.29-.78v-.6Zm-7.75-.23c.09-.56.37-1.03.84-1.4.48-.38,1.02-.55,1.64-.52.44.03.86.12,1.24.27.38.15.57.39.57.73,0,.16-.05.28-.14.36-.09.08-.23.13-.41.16-.18,0-.38-.15-.6-.42-.22-.28-.45-.41-.67-.41-.3,0-.53.15-.69.45-.16.3-.25.67-.26,1.1-.01.33.05.64.17.93.13.29.3.47.52.57.16.05.33.09.5.11.43-.02.79-.19,1.1-.52.11-.11.21-.16.3-.16.18,0,.27.1.27.29,0,.09-.04.19-.11.3-.19.26-.47.47-.85.63-.38.15-.71.24-1,.25-.43,0-.83-.09-1.2-.26-.37-.17-.67-.43-.91-.77-.24-.34-.36-.74-.37-1.22.01-.11.02-.19.02-.26,0-.06,0-.12.01-.19Zm-5.38,1.99c-.2.22-.44.4-.72.52-.28.12-.56.18-.86.18-.42,0-.77-.13-1.05-.39-.28-.26-.42-.65-.42-1.16v-1.89c0-.16-.06-.29-.17-.38-.12-.09-.17-.18-.17-.26,0-.09.05-.16.14-.2.09-.04.3-.11.63-.19.35-.07.56-.1.63-.1.3,0,.45.18.45.53v2.46c0,.26.06.46.18.61.12.14.27.22.44.23.22-.01.41-.1.57-.26.16-.16.25-.37.25-.63v-1.81c0-.1-.01-.17-.04-.21-.03-.05-.07-.09-.11-.13-.05-.04-.09-.08-.13-.12-.04-.04-.06-.09-.07-.16,0-.09.06-.16.17-.21.11-.05.34-.12.69-.2.41-.07.64-.1.67-.1.21,0,.32.09.32.26v3.21c0,.17.08.3.23.39.15.09.23.19.23.31,0,.19-.13.28-.37.28h-.99c-.17,0-.29-.04-.36-.13-.07-.08-.11-.23-.13-.43Zm-7.46-1.67c0,1.13.33,1.71.99,1.72.38,0,.65-.14.83-.44.17-.3.26-.75.26-1.35,0-.52-.1-.9-.31-1.15-.21-.25-.46-.37-.75-.36-.29.02-.53.16-.72.43-.19.27-.28.65-.28,1.16Zm-1.57.04c.02-.45.15-.85.41-1.2.25-.35.58-.61.97-.8.39-.19.81-.28,1.23-.26.72,0,1.33.21,1.84.63.51.42.76.96.76,1.62,0,.72-.27,1.28-.81,1.69-.53.41-1.15.63-1.85.66-.43.01-.84-.08-1.24-.26-.39-.19-.71-.45-.96-.8-.25-.34-.37-.74-.38-1.2.01-.03.02-.05.02-.07Zm-3.5-.48l-1.87-2.86c-.04-.06-.06-.11-.08-.15-.02-.04-.04-.08-.06-.11-.02-.03-.05-.06-.09-.08-.05-.04-.13-.08-.24-.14-.11-.06-.18-.11-.23-.16-.05-.05-.07-.12-.07-.21,0-.19.19-.28.56-.28h1.89c.25,0,.39.09.41.26.01.05,0,.1-.02.15-.03.05-.07.1-.13.14-.06.04-.11.08-.16.11-.05.03-.08.07-.1.12.02.19.11.41.26.67.13.21.33.51.62.92.28.4.49.7.62.9.32-.42.61-.83.89-1.24.27-.4.47-.73.57-.99.02-.07.04-.13.04-.16,0-.11-.07-.21-.21-.31-.14-.1-.21-.2-.21-.29,0-.19.14-.28.43-.28h1.1c.21,0,.32.08.32.25,0,.08-.02.15-.06.21-.04.06-.11.12-.21.19-.09.07-.16.13-.2.19l-2.1,3.1v1.87c0,.06.03.12.1.16.06.05.13.09.19.12.06.03.12.07.16.11.04.04.06.1.05.18,0,.11-.04.19-.13.23-.09.05-.16.07-.22.07h-1.79c-.34,0-.51-.1-.51-.3,0-.07.02-.13.05-.16.04-.04.1-.08.2-.13.09-.05.16-.09.19-.14.03-.04.05-.12.05-.22v-1.72Zm-8.93,1.1c.06.3.2.53.41.71.22.18.48.27.78.28.37-.01.72-.15,1.05-.42.24-.23.41-.34.5-.34.19,0,.28.09.28.26,0,.1-.03.19-.09.26-.23.3-.52.54-.89.69-.37.16-.75.24-1.15.26-.44.01-.86-.07-1.25-.24-.39-.17-.71-.42-.95-.75-.24-.33-.36-.72-.36-1.18,0-.05,0-.1,0-.15.04-.68.32-1.22.84-1.64.52-.42,1.11-.63,1.77-.64.47,0,.87.06,1.18.2.31.14.53.31.65.51s.18.41.18.63v.13c-.12.75-1.1,1.23-2.95,1.42Zm-.09-.6c1.08-.13,1.62-.48,1.62-1.07,0-.11-.02-.21-.07-.3-.05-.09-.12-.16-.21-.21-.09-.05-.19-.07-.3-.07-.25,0-.45.09-.6.26-.15.18-.26.39-.33.64-.07.25-.11.5-.11.73Zm-8.16-1.64c.38-.44.86-.66,1.44-.66.27,0,.52.06.75.18.23.12.42.3.57.55.16-.23.38-.41.64-.53.26-.12.55-.18.85-.18.45,0,.83.13,1.15.38.31.25.47.61.47,1.08v2.12c0,.14.06.25.19.33.13.08.19.17.18.28,0,.18-.13.26-.37.26h-1.48c-.25,0-.37-.09-.37-.28,0-.1.06-.18.19-.25.12-.07.19-.17.19-.31v-2c0-.26-.06-.46-.17-.59-.12-.13-.26-.2-.45-.2-.2,0-.38.08-.53.25-.15.17-.23.38-.23.63v1.87c0,.16.06.27.19.34.12.07.19.15.19.25,0,.19-.13.28-.37.28h-1.5c-.25,0-.37-.09-.37-.28,0-.08.05-.15.13-.2.08-.05.14-.11.18-.16.04-.05.06-.14.06-.27v-1.89c0-.27-.06-.48-.18-.63-.12-.15-.27-.22-.45-.22-.19,0-.37.09-.53.25-.16.17-.24.38-.24.63v1.89c0,.15.06.27.19.34.13.08.19.16.19.25,0,.11-.03.18-.08.22-.05.04-.15.06-.3.06h-1.48c-.25,0-.37-.09-.37-.28,0-.09.06-.17.19-.25.12-.08.19-.2.19-.38v-2.24c0-.12-.03-.2-.08-.25-.05-.05-.13-.11-.23-.17-.1-.07-.15-.13-.15-.18,0-.2.26-.39.79-.57.27-.08.46-.12.56-.12.28,0,.44.21.47.64Zm-3.96,3.24c-.13.23-.32.41-.59.52-.26.12-.55.18-.85.18-.44,0-.82-.12-1.13-.36-.32-.24-.48-.57-.49-1-.02-.6.26-1.03.83-1.28.57-.25,1.18-.37,1.85-.37h.29c-.02-.27-.1-.5-.24-.69-.14-.19-.34-.28-.6-.28-.17,0-.38.09-.63.28-.25.19-.46.29-.62.31-.16-.01-.29-.06-.4-.16-.11-.09-.15-.21-.13-.36.04-.33.48-.55,1.33-.66.11-.01.3-.02.56-.02.64,0,1.18.13,1.61.39.43.26.65.68.65,1.26v1.85c0,.1.02.18.06.24.04.05.1.1.17.13.07.03.12.06.16.1.04.04.06.1.06.2,0,.19-.12.28-.36.28h-1.12c-.15,0-.26-.04-.32-.11-.06-.08-.09-.23-.09-.46Zm-.06-1.74c-.4-.03-.75.04-1.04.22-.29.18-.43.45-.43.81,0,.43.17.66.52.68.25-.01.47-.12.66-.33.19-.21.29-.47.29-.78v-.6Zm-8.49-2.65v3.78c0,.24.03.39.1.45.06.05.17.11.31.17.15.06.22.15.23.28,0,.2-.15.3-.46.3h-1.14c-.3,0-.45-.09-.45-.28,0-.1.02-.17.07-.21.05-.04.12-.08.22-.12.1-.04.17-.07.21-.1.1-.08.15-.23.15-.45v-4.24c0-.27-.03-.43-.11-.49-.07-.06-.19-.12-.37-.19-.18-.07-.26-.17-.26-.3,0-.2.14-.3.41-.3h1.55c.12,0,.2.02.25.06.05.04.13.11.23.22.23.24.51.57.82,1.01.32.44.55.77.71,1,.62.88,1.06,1.5,1.32,1.87v-3.01c0-.18-.03-.31-.09-.39-.06-.08-.14-.13-.25-.17-.11-.04-.19-.07-.23-.11-.04-.03-.06-.1-.06-.21,0-.19.15-.28.45-.28h1.12c.31,0,.47.09.47.26,0,.11-.02.18-.06.21-.04.03-.12.07-.23.11-.11.05-.2.11-.25.18s-.08.2-.08.39v5.07c0,.23-.06.37-.17.43-.12.06-.29.09-.53.09-.08,0-.16-.02-.23-.05-.07-.04-.14-.11-.23-.23l-3.42-4.76Zm-8.06,3.4c.06.3.2.53.42.71.22.18.48.27.78.28.37-.01.72-.15,1.05-.42.24-.23.41-.34.5-.34.19,0,.28.09.28.26,0,.1-.03.19-.09.26-.23.3-.52.54-.89.69-.37.16-.75.24-1.15.26-.44.01-.86-.07-1.25-.24-.39-.17-.71-.42-.95-.75-.24-.33-.36-.72-.36-1.18,0-.05,0-.1,0-.15.04-.68.31-1.22.83-1.64s1.11-.63,1.77-.64c.47,0,.87.06,1.18.2.31.14.53.31.65.51.12.2.18.41.18.63v.13c-.12.75-1.1,1.23-2.96,1.42Zm-.09-.6c1.08-.13,1.62-.48,1.62-1.07,0-.11-.02-.21-.07-.3-.05-.09-.12-.16-.21-.21-.09-.05-.19-.07-.3-.07-.25,0-.45.09-.6.26-.15.18-.26.39-.33.64-.07.25-.11.5-.11.73Zm-5.32-1.83c.38-.3.83-.45,1.33-.45.23,0,.47.04.73.12.64.25.97.79.97,1.61v1.8c0,.11.02.19.05.25.03.06.08.1.15.15.06.04.11.08.14.11.03.03.04.09.04.16,0,.09-.03.15-.1.2-.06.05-.14.07-.21.07h-1.55c-.25,0-.37-.09-.37-.26,0-.11.06-.2.19-.27.13-.07.19-.2.19-.38v-1.87c0-.61-.23-.92-.69-.94-.24,0-.45.07-.61.22-.16.15-.24.35-.24.58v1.99c0,.09.02.17.05.23.03.06.08.11.14.16.06.04.11.08.14.11.03.03.05.08.05.15,0,.07-.03.14-.08.2-.05.06-.13.09-.23.09h-1.57c-.16,0-.26-.02-.31-.05-.05-.03-.07-.11-.07-.24,0-.09.06-.17.19-.24.12-.08.19-.2.19-.37v-4.54c0-.24-.03-.39-.09-.46-.06-.07-.14-.13-.26-.19-.11-.06-.17-.14-.17-.24,0-.07.02-.12.07-.15.05-.04.11-.07.19-.09.08-.03.16-.05.25-.08l.95-.25s.1-.02.18-.02c.25,0,.37.2.37.59v2.32Zm-6.05,3.06v-4.72c0-.15-.02-.24-.07-.28-.05-.04-.17-.06-.38-.06-.41,0-.77.19-1.07.57-.09.13-.21.2-.36.22-.08,0-.15-.04-.21-.12-.06-.08-.1-.18-.11-.29.02-.05.04-.18.06-.4.02-.22.07-.38.12-.49.06-.11.16-.16.3-.16h5.11c.1,0,.18.04.23.12.05.08.1.24.14.47.04.23.07.36.07.38.03.12.01.23-.06.32-.07.09-.16.14-.28.15-.14-.02-.26-.1-.36-.22-.13-.18-.29-.31-.49-.41-.2-.09-.38-.14-.53-.14-.21,0-.34.02-.39.06-.05.04-.08.12-.08.24v4.77c0,.11.04.19.12.24.08.05.16.1.24.15.08.05.12.13.12.24,0,.2-.12.3-.36.3h-1.83c-.29,0-.43-.11-.43-.32,0-.09.02-.15.05-.18.04-.04.1-.08.18-.12.09-.04.15-.09.19-.13.04-.04.06-.11.06-.2Z" style="fill: #e30016; fill-rule: evenodd;"/>
        <path d="m170.96,11.99h-.3c-.16,0-.27-.03-.33-.09-.05-.06-.09-.14-.1-.25,0-.21.14-.33.43-.36.41-.04.68-.38.8-1.03.04-.19.08-.33.14-.41.06-.08.18-.12.37-.12.17.01.28.02.32.04.04.01.07.04.1.1.02.05.03.13.03.22v1.2h.57c.35,0,.53.13.53.38,0,.22-.15.33-.46.33h-.61v2.47c0,.19.05.32.15.4.1.08.3.11.57.1.27,0,.41.11.41.34,0,.09-.04.17-.13.25-.09.07-.2.11-.36.11h-1.48c-.21,0-.38-.03-.5-.1-.12-.07-.18-.24-.18-.52v-3.05Z" style="fill: #e30016; fill-rule: evenodd;"/>
      </g>
    </g>
  </g>
</svg>